<?xml version="1.0" encoding="utf-8"?>
<!-- Generator: Adobe Illustrator 19.1.0, SVG Export Plug-In . SVG Version: 6.00 Build 0)  -->
<svg version="1.1" id="Layer_1" xmlns="http://www.w3.org/2000/svg" xmlns:xlink="http://www.w3.org/1999/xlink" x="0px" y="0px"
	 viewBox="0 0 612 792" style="enable-background:new 0 0 612 792;" xml:space="preserve">
<g>
	<ellipse style="fill:#F0C419;stroke:#08486B;stroke-width:7.635;stroke-miterlimit:10;" cx="260.4" cy="205.8" rx="60.4" ry="67"/>
	<polyline style="fill:#F0C419;stroke:#08486B;stroke-width:7.635;stroke-miterlimit:10;" points="211.6,245.2 260.4,339 
		309.3,245.2 	"/>
</g>
<g>
	<g>
		<path style="fill:#08486B;stroke:#08486B;stroke-width:2.545;stroke-miterlimit:10;" d="M263,209.8c0.1,1.5,0.3,2.9,0.4,4.3
			c0.1,1.1-0.5,1.8-1.6,1.9c-1.4,0.1-2.8,0.3-4.4,0.6c0.5,0.4,1.1,0.7,1.6,1.1c1.2,0.9,2.5,1.7,3.5,2.8c0.8,0.9,0.7,3.1-1,4.3
			c-1.5,1.1-1.9,2.4-1.5,4.3c0.3,1.7-0.1,3.5-1.3,4.7c-0.5,0.5-1.5,0.6-2.2,0.5c-1.4-0.1-2.8-0.5-4.2-0.7c-1.4-0.2-2.8-0.5-4.4-0.8
			c0.1,2.1,0.2,4.1,0.3,6.1c0.1,1.1,0.2,2.3,0.1,3.4c0,0.3-0.7,0.8-1.1,0.9c-3.4,0.3-6.9,0.6-10.4,0.9c-2.3,0.2-4.6,0.5-6.9,0.8
			c-0.7,0.1-1.1-0.2-1.2-1c-0.2-3.7-0.5-7.3-0.8-11c-0.5-5.6-1-11.2-1.5-16.8c-0.3-3.3-0.7-6.6-1-9.9c-0.5-4.9-1.1-9.9-1.5-14.8
			c-0.3-2.7-0.4-5.5-0.6-8.2c-0.3-3.7-0.6-7.4-0.8-11.1c-0.1-1.8,0-3.7-0.1-5.5c-0.1-1.4,0.8-2,1.8-2.4c2.1-0.8,4.2-1.5,6.3-2.1
			c1-0.3,2.1-0.5,3.2-0.3c2.9,0.4,5.8,0.9,8.7,1.4c3.3,0.6,6.4,1.9,9.4,3.7c2,1.2,3.7,3,5.5,4.6c2.5,2.3,4,5.4,5.3,8.6
			c0.6,1.4,0.9,2.9,1,4.4c0.1,2.4-0.1,4.8-0.2,7.2c-0.1,2.3,0.5,4.4,2.2,6c1.8,1.8,3.2,3.9,3.8,6.6c0.3,1.5,0,4-1.1,4.9
			c-0.3,0.3-0.8,0.4-1.2,0.5C265.8,209.6,264.5,209.7,263,209.8z M260.7,222c-1.1-0.7-2.2-1.4-3.3-2.2c-1-0.8-2.1-1.5-3-2.5
			c-1-1.1-0.3-3.1,1.1-3.4c1.2-0.2,2.5-0.5,3.7-0.6c1-0.1,1.4-0.5,1.2-1.6c-0.1-0.3-0.2-0.7-0.2-1c-0.4-1.8,0-3,1.4-3.6
			c0.7-0.3,1.6-0.1,2.4-0.3c0.7-0.1,1.8-0.2,2-0.7c0.3-0.7,0.1-1.9-0.3-2.5c-1-1.6-2.1-3-3.3-4.5c-1.1-1.4-2.2-2.9-2.3-4.8
			c-0.1-1.9-0.1-3.9,0.1-5.7c0.4-3.4-0.4-6.5-1.9-9.4c-1.3-2.5-3-4.6-5.1-6.3c-1.9-1.5-3.9-2.8-6-3.8c-3.6-1.7-7.6-2.1-11.5-2.6
			c-1-0.1-2.1-0.3-3.2-0.1c-1.9,0.3-3.8,1-5.8,1.4c-0.8,0.2-0.9,0.6-0.9,1.3c0.2,2.9,0.4,5.8,0.6,8.8c0.2,2.5,0.3,5,0.5,7.5
			c0.3,3.8,0.5,7.6,0.8,11.4c0.2,2.6,0.3,5.2,0.4,7.9c0.2,3.9,0.5,7.8,0.7,11.8c0.1,2.6,0.3,5.1,0.4,7.7c0.3,4.1,0.6,8.2,0.9,12.3
			c0.2,2.1,0.4,4.2,0.5,6.4c0.3,0,0.6,0.1,0.8,0c2.4-0.2,4.8-0.4,7.2-0.5c2.4-0.1,4.7-0.2,7.1-0.4c0.3,0,0.9-0.6,0.9-0.9
			c0-1.3-0.3-2.5-0.4-3.8c-0.1-1.6-0.2-3.1-0.3-4.7c0-0.8,0.3-1.5,1.1-1.5c0.9,0,1.8,0.2,2.7,0.3c2.3,0.2,4.6,0.5,7,0.7
			c1.3,0.1,1.5-0.4,1.4-1.9c-0.1-1.6-0.1-3.2,0.4-4.7C258.8,224.2,259.8,223.2,260.7,222z"/>
		<path style="fill:#08486B;stroke:#08486B;stroke-width:2.545;stroke-miterlimit:10;" d="M302.4,206.4c0,2.6,0.1,5.2,0,7.8
			c-0.1,2.1-0.3,4.3-0.7,6.4c-0.3,2.4-0.7,4.8-1.3,7.1c-0.6,2.6-1.4,5.1-2.2,7.6c-0.7,2.1-1.4,4.2-2.4,6.1c-0.9,1.9-1.7,3.8-3.5,4.9
			c-0.3,0.2-0.8,0.3-1.1,0.1c-1.1-0.5-2.1-1.1-3.1-1.8c-1.2-0.9-1.7-3.2-1.1-4.6c1.6-3.5,3.3-7,4.9-10.6c1.6-3.4,2.5-7.1,2.9-10.9
			c0.3-3.3,0.8-6.6,0.8-9.9c0-3.8,0.1-7.7-0.9-11.4c-0.5-1.8-0.7-3.8-1.3-5.6c-0.8-2.6-1.8-5.2-2.8-7.8c-0.6-1.5-1.3-2.9-2-4.3
			c-0.4-0.7-0.3-1.2,0.3-1.7c0.8-0.7,1.5-1.4,2.3-2c0.2-0.2,0.8-0.2,1,0c1,0.9,2.2,1.6,2.9,2.8c1,1.7,1.7,3.7,2.5,5.7
			c0.8,2,1.5,3.9,2.1,6c0.5,1.9,0.9,3.8,1.2,5.7c0.5,3,0.8,6,1.2,9c0.1,0.4,0,0.9,0,1.3C302.3,206.4,302.3,206.4,302.4,206.4z
			 M291.3,239.9c0.1,0.1,0.2,0.1,0.3,0.2c2.1-2.1,3.2-4.8,4.1-7.6c1.5-4.4,2.3-9.1,2.8-13.8c0.4-3.7,0.7-7.4,1-11.1
			c0.4-4.8,0.1-9.6-1.1-14.2c-0.7-3-1.7-5.9-2.7-8.8c-0.5-1.5-1.1-2.9-1.7-4.3c-0.3-0.8-0.8-1.5-1.3-2.2c-0.6-0.8-1.2-0.3-1.6,0.2
			c-0.2,0.3-0.3,0.9-0.1,1.3c0.3,0.9,0.9,1.7,1.2,2.6c1.4,3.8,2.8,7.6,4,11.5c0.7,2.3,1.1,4.8,1.5,7.2c0.5,3.5,1,7,1,10.5
			c0,3.4-0.5,6.8-0.9,10.1c-0.4,3.9-2,7.3-3.3,10.8C293.5,234.8,292.3,237.3,291.3,239.9z"/>
		<path style="fill:#08486B;stroke:#08486B;stroke-width:2.545;stroke-miterlimit:10;" d="M291.9,205.9c0,2.4,0.1,5,0,7.6
			c-0.1,2.1-0.3,4.2-0.8,6.2c-1.1,4.4-2.3,8.7-3.5,13c-0.5,1.8-1.3,3.5-2,5.1c-0.8,1.8-3,2.2-4.8,0.9c-0.5-0.3-0.9-0.7-1.4-1
			c-1.5-1.1-1.7-3.7-0.4-5c2.3-2.6,4-5.7,4.7-9.3c0.6-3.1,1.4-6.2,1.7-9.3c0.4-4,0.5-8.1,0.5-12.1c-0.1-3.9-1.6-7.5-3.2-11
			c-0.8-1.8-1.6-3.6-2.3-5.5c-0.6-1.5-0.4-1.7,0.9-2.5c3-1.9,2.9-1.5,5.4,1.5c1.8,2.2,2.8,5,3.5,7.9c0.9,3.6,1.4,7.2,1.5,11
			C291.6,204.1,291.8,204.8,291.9,205.9z M281.9,184.5c4.2,7.5,6.7,15.5,7,24.3c1-9.1,0.2-17.8-5.4-25.3
			C283,183.8,282.6,184.1,281.9,184.5z"/>
		<path style="fill:#08486B;stroke:#08486B;stroke-width:2.545;stroke-miterlimit:10;" d="M282,208.3c-0.3,3.5-0.5,7-1,10.5
			c-0.2,1.7-0.7,3.4-1.2,5c-0.8,2.9-1.8,5.8-3.2,8.5c-0.6,1.1-1.5,1.6-2.2,1.1c-1.6-1-3.6-1.7-4.3-4c-0.4-1.5,0.4-2.4,0.9-3.5
			c2-4.3,3.4-8.8,4-13.6c0.2-1.9,0.5-3.8,0.7-5.7c0.3-3-0.5-5.8-1.6-8.4c-0.8-2-1.6-4-2.4-6c-0.4-0.9-0.2-1.7,0.6-2.3
			c0.5-0.3,0.9-0.8,1.3-1.2c1.1-1.2,2.2-0.7,3.1,0.6c0.9,1.3,1.6,2.7,2,4.2c1,3.3,1.8,6.6,2.6,9.9c0.3,1.6,0.3,3.2,0.5,4.8
			C281.8,208.3,281.9,208.3,282,208.3z M273.5,191.2c2.7,5.8,5,11.6,5.2,18.2c1.2-7.1-1-13.3-3.6-19.7
			C274.5,190.3,274.1,190.7,273.5,191.2z M278.3,214.5c-1.3,4.5-2.6,8.6-3.9,12.9C277.1,223.5,277.6,219.2,278.3,214.5z"/>
	</g>
</g>
</svg>
